<svg width="96" height="96" viewBox="0 0 96 96" fill="none" xmlns="http://www.w3.org/2000/svg">
  <title>SmartDental</title>
  <defs>
    <linearGradient id="sdg" x1="18" y1="18" x2="78" y2="78" gradientUnits="userSpaceOnUse">
      <stop stop-color="#0D9488"/>
      <stop offset="1" stop-color="#0F766E"/>
    </linearGradient>
  </defs>
  <rect x="10" y="10" width="76" height="76" rx="18" fill="url(#sdg)"/>
  <!-- Tooth icon -->
  <path d="M48 22c-5.5 0-10 2-13 5.5-3 3.5-4 8-3.5 12.5 0.5 4 2 8.5 3.5 13 1.5 4.5 3 9 3.5 13 0.5 3 1.5 5.5 4 6.5 1.5 0.5 3 0 4-1.5 1.5-2 2-5.5 2.5-8.5 0.3-2 0.8-3 1.5-3s1.2 1 1.5 3c0.5 3 1 6.5 2.5 8.5 1 1.5 2.5 2 4 1.5 2.5-1 3.5-3.5 4-6.5 0.5-4 2-8.5 3.5-13 1.5-4.5 3-9 3.5-13 0.5-4.5-0.5-9-3.5-12.5C58 24 53.5 22 48 22z" fill="white" fill-opacity="0.95"/>
  <!-- Sparkle -->
  <circle cx="72" cy="24" r="3.5" fill="white" fill-opacity="0.7"/>
  <circle cx="76" cy="30" r="2" fill="white" fill-opacity="0.5"/>
</svg>
